<svg xmlns="http://www.w3.org/2000/svg" viewBox="0 0 120 120">
  <circle cx="60" cy="60" r="58" fill="#fb923c"/>
  <!-- Ears -->
  <polygon points="28,48 18,8 50,35" fill="#ea580c"/>
  <polygon points="92,48 102,8 70,35" fill="#ea580c"/>
  <polygon points="32,44 24,16 48,36" fill="#fde68a"/>
  <polygon points="88,44 96,16 72,36" fill="#fde68a"/>
  <!-- Head -->
  <ellipse cx="60" cy="58" rx="30" ry="28" fill="#fb923c"/>
  <!-- White face markings -->
  <ellipse cx="60" cy="68" rx="18" ry="20" fill="white"/>
  <!-- Eyes -->
  <ellipse cx="45" cy="50" rx="5" ry="6" fill="#1e1b4b"/>
  <ellipse cx="75" cy="50" rx="5" ry="6" fill="#1e1b4b"/>
  <ellipse cx="46" cy="49" rx="2" ry="2.5" fill="#fff"/>
  <ellipse cx="76" cy="49" rx="2" ry="2.5" fill="#fff"/>
  <!-- Nose -->
  <circle cx="60" cy="62" r="4" fill="#1e1b4b"/>
  <ellipse cx="60" cy="61" rx="1.5" ry="1" fill="#fff" opacity="0.5"/>
  <!-- Mouth -->
  <path d="M56 66 Q52 72 48 68" stroke="#1e1b4b" stroke-width="1.5" fill="none" stroke-linecap="round"/>
  <path d="M64 66 Q68 72 72 68" stroke="#1e1b4b" stroke-width="1.5" fill="none" stroke-linecap="round"/>
  <!-- Body -->
  <ellipse cx="60" cy="98" rx="24" ry="18" fill="#fb923c"/>
  <ellipse cx="60" cy="100" rx="15" ry="12" fill="white"/>
</svg>
