<svg xmlns="http://www.w3.org/2000/svg" viewBox="0 0 120 120">
  <circle cx="60" cy="60" r="58" fill="#a78bfa"/>
  <!-- Ear tufts -->
  <polygon points="35,30 25,8 45,25" fill="#92400e"/>
  <polygon points="85,30 95,8 75,25" fill="#92400e"/>
  <!-- Body -->
  <ellipse cx="60" cy="68" rx="34" ry="38" fill="#b45309"/>
  <!-- Belly pattern -->
  <ellipse cx="60" cy="78" rx="22" ry="26" fill="#fde68a"/>
  <line x1="52" y1="65" x2="52" y2="100" stroke="#d97706" stroke-width="1" opacity="0.3"/>
  <line x1="60" y1="60" x2="60" y2="100" stroke="#d97706" stroke-width="1" opacity="0.3"/>
  <line x1="68" y1="65" x2="68" y2="100" stroke="#d97706" stroke-width="1" opacity="0.3"/>
  <!-- Eye circles -->
  <circle cx="43" cy="50" r="14" fill="#fde68a"/>
  <circle cx="77" cy="50" r="14" fill="#fde68a"/>
  <!-- Eyes -->
  <circle cx="43" cy="50" r="8" fill="#f97316"/>
  <circle cx="77" cy="50" r="8" fill="#f97316"/>
  <circle cx="43" cy="50" r="5" fill="#1e1b4b"/>
  <circle cx="77" cy="50" r="5" fill="#1e1b4b"/>
  <circle cx="45" cy="48" r="2" fill="#fff"/>
  <circle cx="79" cy="48" r="2" fill="#fff"/>
  <!-- Beak -->
  <polygon points="60,56 55,64 65,64" fill="#f59e0b"/>
  <!-- Wings -->
  <ellipse cx="26" cy="74" rx="10" ry="22" fill="#92400e" transform="rotate(-8 26 74)"/>
  <ellipse cx="94" cy="74" rx="10" ry="22" fill="#92400e" transform="rotate(8 94 74)"/>
  <!-- Feet -->
  <path d="M45 104 L40 112 M45 104 L45 112 M45 104 L50 112" stroke="#f59e0b" stroke-width="2.5" stroke-linecap="round"/>
  <path d="M75 104 L70 112 M75 104 L75 112 M75 104 L80 112" stroke="#f59e0b" stroke-width="2.5" stroke-linecap="round"/>
</svg>
