<svg xmlns="http://www.w3.org/2000/svg" viewBox="0 0 120 120">
  <circle cx="60" cy="60" r="58" fill="#86efac"/>
  <!-- Ears -->
  <circle cx="32" cy="28" r="14" fill="#1e1b4b"/>
  <circle cx="88" cy="28" r="14" fill="#1e1b4b"/>
  <!-- Head -->
  <circle cx="60" cy="58" r="34" fill="white"/>
  <!-- Eye patches -->
  <ellipse cx="43" cy="52" rx="12" ry="10" fill="#1e1b4b" transform="rotate(-10 43 52)"/>
  <ellipse cx="77" cy="52" rx="12" ry="10" fill="#1e1b4b" transform="rotate(10 77 52)"/>
  <!-- Eyes -->
  <circle cx="43" cy="52" r="5" fill="white"/>
  <circle cx="77" cy="52" r="5" fill="white"/>
  <circle cx="44" cy="53" r="3" fill="#1e1b4b"/>
  <circle cx="78" cy="53" r="3" fill="#1e1b4b"/>
  <circle cx="45" cy="52" r="1.2" fill="#fff"/>
  <circle cx="79" cy="52" r="1.2" fill="#fff"/>
  <!-- Nose -->
  <ellipse cx="60" cy="64" rx="5" ry="3.5" fill="#1e1b4b"/>
  <!-- Mouth -->
  <path d="M56 67 Q60 73 64 67" stroke="#1e1b4b" stroke-width="2" fill="none" stroke-linecap="round"/>
  <!-- Blush -->
  <ellipse cx="38" cy="66" rx="5" ry="3" fill="#fda4af" opacity="0.5"/>
  <ellipse cx="82" cy="66" rx="5" ry="3" fill="#fda4af" opacity="0.5"/>
  <!-- Body -->
  <ellipse cx="60" cy="100" rx="22" ry="16" fill="white"/>
</svg>
