<svg xmlns="http://www.w3.org/2000/svg" viewBox="0 0 120 120">
  <circle cx="60" cy="60" r="58" fill="#38bdf8"/>
  <!-- Body -->
  <ellipse cx="60" cy="68" rx="32" ry="38" fill="#1e293b"/>
  <!-- Belly -->
  <ellipse cx="60" cy="74" rx="20" ry="28" fill="#f1f5f9"/>
  <!-- Eyes -->
  <circle cx="47" cy="48" r="7" fill="white"/>
  <circle cx="73" cy="48" r="7" fill="white"/>
  <circle cx="48" cy="49" r="4" fill="#1e1b4b"/>
  <circle cx="74" cy="49" r="4" fill="#1e1b4b"/>
  <circle cx="49" cy="48" r="1.5" fill="#fff"/>
  <circle cx="75" cy="48" r="1.5" fill="#fff"/>
  <!-- Beak -->
  <polygon points="60,55 53,62 67,62" fill="#f97316"/>
  <line x1="53" y1="62" x2="67" y2="62" stroke="#ea580c" stroke-width="1"/>
  <!-- Flippers -->
  <ellipse cx="28" cy="72" rx="8" ry="18" fill="#1e293b" transform="rotate(-15 28 72)"/>
  <ellipse cx="92" cy="72" rx="8" ry="18" fill="#1e293b" transform="rotate(15 92 72)"/>
  <!-- Feet -->
  <ellipse cx="48" cy="105" rx="10" ry="5" fill="#f97316"/>
  <ellipse cx="72" cy="105" rx="10" ry="5" fill="#f97316"/>
  <!-- Bow tie -->
  <polygon points="54,67 60,72 66,67 60,70" fill="#ef4444"/>
</svg>
