<svg xmlns="http://www.w3.org/2000/svg" viewBox="0 0 120 120">
  <circle cx="60" cy="60" r="58" fill="#bae6fd"/>
  <!-- Ears -->
  <circle cx="34" cy="28" r="13" fill="#f0f9ff"/>
  <circle cx="86" cy="28" r="13" fill="#f0f9ff"/>
  <circle cx="34" cy="28" r="7" fill="#e0f2fe"/>
  <circle cx="86" cy="28" r="7" fill="#e0f2fe"/>
  <!-- Head -->
  <circle cx="60" cy="56" r="32" fill="#f0f9ff"/>
  <!-- Snout -->
  <ellipse cx="60" cy="66" rx="16" ry="12" fill="white"/>
  <!-- Eyes -->
  <circle cx="46" cy="50" r="5" fill="#0c4a6e"/>
  <circle cx="74" cy="50" r="5" fill="#0c4a6e"/>
  <circle cx="47.5" cy="49" r="2" fill="#fff"/>
  <circle cx="75.5" cy="49" r="2" fill="#fff"/>
  <!-- Nose -->
  <ellipse cx="60" cy="62" rx="5" ry="4" fill="#1e3a5f"/>
  <ellipse cx="59" cy="61" rx="1.5" ry="1" fill="#fff" opacity="0.4"/>
  <!-- Mouth -->
  <path d="M55 66 Q60 72 65 66" stroke="#1e3a5f" stroke-width="1.5" fill="none" stroke-linecap="round"/>
  <!-- Blush -->
  <ellipse cx="38" cy="60" rx="5" ry="3" fill="#93c5fd" opacity="0.5"/>
  <ellipse cx="82" cy="60" rx="5" ry="3" fill="#93c5fd" opacity="0.5"/>
  <!-- Body -->
  <ellipse cx="60" cy="98" rx="24" ry="18" fill="#f0f9ff"/>
  <!-- Scarf -->
  <path d="M36 84 Q60 90 84 84 Q84 92 60 94 Q36 92 36 84" fill="#38bdf8"/>
  <rect x="56" y="90" width="8" height="14" rx="3" fill="#38bdf8"/>
</svg>
