<svg xmlns="http://www.w3.org/2000/svg" viewBox="0 0 120 120">
  <circle cx="60" cy="60" r="58" fill="#7c3aed"/>
  <!-- Hat -->
  <polygon points="60,5 85,50 35,50" fill="#4c1d95"/>
  <rect x="28" y="47" width="64" height="8" rx="4" fill="#6d28d9"/>
  <!-- Star on hat -->
  <polygon points="60,18 62,26 70,26 64,31 66,39 60,34 54,39 56,31 50,26 58,26" fill="#fbbf24"/>
  <!-- Face -->
  <circle cx="60" cy="65" r="22" fill="#fde68a"/>
  <!-- Eyes -->
  <circle cx="52" cy="62" r="4" fill="#1e1b4b"/>
  <circle cx="68" cy="62" r="4" fill="#1e1b4b"/>
  <circle cx="53" cy="61" r="1.5" fill="#fff"/>
  <circle cx="69" cy="61" r="1.5" fill="#fff"/>
  <!-- Smile -->
  <path d="M50 72 Q60 80 70 72" stroke="#1e1b4b" stroke-width="2.5" fill="none" stroke-linecap="round"/>
  <!-- Beard -->
  <path d="M42 75 Q48 95 60 100 Q72 95 78 75" fill="#e2e8f0" opacity="0.9"/>
  <!-- Robe -->
  <path d="M30 90 Q35 85 45 87 L75 87 Q85 85 90 90 L90 115 L30 115 Z" fill="#4c1d95"/>
</svg>
